<svg width="23" height="23" viewBox="0 0 23 23" fill="none" xmlns="http://www.w3.org/2000/svg">
<path fill-rule="evenodd" clip-rule="evenodd" d="M19.2003 3.2895C23.5873 7.6755 23.5873 14.8135 19.2003 19.1995C18.1563 20.2448 16.9161 21.0735 15.551 21.6381C14.1858 22.2027 12.7226 22.492 11.2452 22.4895C9.76795 22.492 8.3047 22.2027 6.93954 21.6381C5.57438 21.0735 4.33421 20.2448 3.29025 19.1995C-1.09675 14.8135 -1.09675 7.6755 3.29025 3.2895C7.67725 -1.0965 14.8133 -1.0965 19.2003 3.2895ZM11.2452 1.4995C9.9649 1.49702 8.69667 1.74752 7.51342 2.23661C6.33016 2.7257 5.25519 3.44375 4.35025 4.3495C0.54925 8.1515 0.54925 14.3375 4.35025 18.1395C8.15225 21.9395 14.3383 21.9395 18.1403 18.1395C21.9413 14.3375 21.9413 8.1515 18.1403 4.3495C17.2352 3.44393 16.1602 2.72607 14.977 2.23715C13.7937 1.74823 12.5255 1.49689 11.2452 1.4995ZM7.97025 6.9195L11.2393 10.1895L14.5092 6.9195C14.6514 6.78702 14.8395 6.7149 15.0338 6.71833C15.2281 6.72175 15.4135 6.80047 15.5509 6.93788C15.6883 7.07529 15.767 7.26068 15.7704 7.45498C15.7739 7.64928 15.7017 7.83732 15.5692 7.9795L12.2992 11.2495L15.5692 14.5195C15.6388 14.5891 15.6941 14.6717 15.7317 14.7627C15.7694 14.8536 15.7888 14.9511 15.7888 15.0495C15.7888 15.1479 15.7694 15.2454 15.7317 15.3363C15.6941 15.4273 15.6388 15.5099 15.5692 15.5795C15.4996 15.6491 15.417 15.7043 15.3261 15.742C15.2351 15.7796 15.1377 15.799 15.0392 15.799C14.9408 15.799 14.8434 15.7796 14.7524 15.742C14.6615 15.7043 14.5789 15.6491 14.5092 15.5795L11.2393 12.3095L7.96925 15.5795C7.89987 15.6494 7.81729 15.7049 7.72631 15.7427C7.63533 15.7804 7.53776 15.7997 7.43925 15.7995C7.2908 15.7998 7.14559 15.7561 7.02206 15.6737C6.89853 15.5914 6.80226 15.4742 6.74547 15.337C6.68867 15.1999 6.67392 15.0489 6.70308 14.9034C6.73224 14.7578 6.804 14.6242 6.90925 14.5195L10.1792 11.2495L6.90925 7.9795C6.83965 7.9099 6.78444 7.82727 6.74677 7.73633C6.7091 7.6454 6.68972 7.54793 6.68972 7.4495C6.68972 7.35107 6.7091 7.2536 6.74677 7.16267C6.78444 7.07173 6.83965 6.9891 6.90925 6.9195C6.97885 6.8499 7.06148 6.79469 7.15242 6.75702C7.24335 6.71935 7.34082 6.69997 7.43925 6.69997C7.53768 6.69997 7.63515 6.71935 7.72608 6.75702C7.81702 6.79469 7.89965 6.8499 7.96925 6.9195H7.97025Z" fill="#6B7684"/>
</svg>
