<svg width="24" height="24" viewBox="0 0 24 24" fill="none" xmlns="http://www.w3.org/2000/svg">
<g clip-path="url(#clip0_84_2)">
<path d="M12 23.2C5.8 23.2 0.800003 18.2 0.800003 12C0.800003 5.8 5.8 0.800003 12 0.800003C18.2 0.800003 23.2 5.8 23.2 12C23.2 18.2 18.2 23.2 12 23.2ZM12 2.2C6.6 2.2 2.2 6.6 2.2 12C2.2 17.4 6.6 21.8 12 21.8C17.4 21.8 21.8 17.4 21.8 12C21.8 6.6 17.4 2.2 12 2.2Z" fill="#6B7684"/>
<path d="M17 12.8H7C6.6 12.8 6.2 12.5 6.2 12C6.2 11.5 6.5 11.2 7 11.2H17C17.4 11.2 17.8 11.5 17.8 12C17.8 12.5 17.4 12.8 17 12.8Z" fill="#6B7684"/>
<path d="M12 17.8C11.6 17.8 11.2 17.5 11.2 17V7C11.2 6.6 11.5 6.2 12 6.2C12.5 6.2 12.8 6.5 12.8 7V17C12.7 17.4 12.4 17.8 12 17.8Z" fill="#6B7684"/>
</g>
<defs>
<clipPath id="clip0_84_2">
<rect width="24" height="24" fill="white"/>
</clipPath>
</defs>
</svg>
