<svg width="1146" height="144" viewBox="0 0 1146 144" fill="none" xmlns="http://www.w3.org/2000/svg">
<path d="M505.6 50.1002C519 50.1002 529.7 57.2002 535.6 70.2002L535.8 70.6002L553.6 65.6002L553.4 65.1002C545.7 45.4002 527.9 33.7002 505.8 33.7002C490.4 33.7002 476.4 39.2002 466.2 49.2002C456.1 59.1002 450.6 72.9002 450.6 87.9002C450.6 103 456 116.8 465.8 126.7C475.7 136.7 489.3 142.2 504.3 142.2C527.2 142.2 542 132.9 552.3 112.1L552.6 111.6L535.5 106.9L535.3 107.3C530.4 118.7 518.7 125.7 504.7 125.7C483.9 125.7 468.3 109.4 468.3 87.8002C468.3 66.3002 484.3 50.1002 505.6 50.1002Z" fill="#ffffff"/>
<path d="M652 50.6001C642.5 39.6001 629.1 33.6001 614 33.6001C584.5 33.6001 562.3 56.9001 562.3 87.9001C562.3 118.9 584.5 142.2 614 142.2C629.6 142.2 643.7 135.6 653 123.9V140.7H668.7V35.0001H652V50.6001ZM616.6 125.8C595.4 125.8 580.1 109.8 580.1 87.8001C580.1 65.8001 595.5 49.8001 616.6 49.8001C636.7 49.8001 651.7 64.1001 653 84.7001V90.9001C651.6 111.5 636.7 125.8 616.6 125.8Z" fill="#ffffff"/>
<path d="M757.4 39.7999C750.6 35.8999 742.1 33.8999 731.6 33.8999C720.4 33.8999 710 40.6999 704.4 51.3999V34.9999H687.9V140.6H705V86.8999C705 61.9999 717.5 50.7999 729.9 50.7999C738.2 50.7999 743.4 52.0999 751.6 56.0999L752.1 56.3999L757.7 39.9999L757.4 39.7999Z" fill="#ffffff"/>
<path d="M806.7 31.7002C792.7 31.7002 779.8 37.4002 770.3 47.9002C760.8 58.3002 755.5 72.6002 755.5 88.0002C755.5 119.9 778.8 144 809.8 144C830.3 144 847.3 134.4 855.1 118.4L855.4 117.9L838.8 113.5L838.6 113.8C833.7 123 823 128.3 809.4 128.3C789.9 128.3 775.5 114.3 773.3 93.4002H858.2V83.8002C858.3 53.6002 836.6 31.7002 806.7 31.7002ZM806.7 48.0002C824.6 48.0002 837.1 59.3002 840.2 78.3002H773.9C777.1 59.9002 789.9 48.0002 806.7 48.0002Z" fill="#ffffff"/>
<path d="M920 31.7002C906 31.7002 893.1 37.4002 883.6 47.9002C874.1 58.3002 868.8 72.6002 868.8 88.0002C868.8 119.9 892.1 144 923.1 144C943.6 144 960.6 134.4 968.4 118.4L968.7 117.9L952.1 113.5L951.9 113.8C947 123 936.3 128.3 922.7 128.3C903.2 128.3 888.8 114.3 886.6 93.4002H971.5V83.8002C971.6 53.6002 949.9 31.7002 920 31.7002ZM920 48.0002C937.9 48.0002 950.4 59.3002 953.5 78.3002H887.2C890.4 59.9002 903.2 48.0002 920 48.0002Z" fill="#ffffff"/>
<path d="M1056 39.7999C1049.2 35.8999 1040.7 33.8999 1030.2 33.8999C1019 33.8999 1008.6 40.6999 1003 51.3999V34.9999H986.5V140.6H1003.6V86.8999C1003.6 61.9999 1016.1 50.7999 1028.5 50.7999C1036.8 50.7999 1042 52.0999 1050.2 56.0999L1050.7 56.3999L1056.3 39.9999L1056 39.7999Z" fill="#ffffff"/>
<path d="M1119 82.5L1092.8 76.5C1082.3 74.1 1077.7 70.2 1077.7 63.8C1077.7 55 1086.6 48.8 1099.2 48.8C1113 48.8 1123.2 55.4 1126.4 66.5L1126.5 67L1144 62.2L1143.9 61.7C1139.6 44.6 1122.9 33.5 1101.2 33.5C1075.6 33.5 1059 46 1059 65.3C1059 78.7 1068.2 87.3 1087.1 91.7L1112 97.5C1122.6 99.9 1128.7 105 1128.7 111.4C1128.7 118.9 1119.7 126.9 1103.1 126.9C1086.2 126.9 1074.6 119.8 1072.8 108.4L1072.7 107.9L1055.3 112.5L1055.4 112.9C1058.1 129.9 1076.7 142.2 1099.6 142.2C1128.7 142.2 1146 130.2 1146 110.2C1146.1 96.5 1136.2 86.5 1119 82.5Z" fill="#ffffff"/>
<path d="M22.7 101.6V58H0V35H22.7V7.4L50.5 0V35H85.1V58H50.5V101.2C50.5 112.7 56.7 119.4 67.4 119.4C73.5 119.4 77.9 118.2 82.6 114.8L92.5 135.5C85.2 141.2 75.4 143.9 64.9 143.9C37.9 143.8 22.7 128.6 22.7 101.6Z" fill="#ffffff"/>
<path d="M93.7998 88C93.7998 56.3 118.4 32.5 151.6 32.5C184.8 32.5 209.4 56.3 209.4 88C209.4 119.8 184.8 143.5 151.6 143.5C118.4 143.5 93.7998 119.7 93.7998 88ZM151.6 118.7C168.6 118.7 181.3 105.6 181.3 88C181.3 70.4 168.6 57.3 151.6 57.3C134.6 57.3 121.9 70.4 121.9 88C121.9 105.6 134.7 118.7 151.6 118.7Z" fill="#ffffff"/>
<path d="M216.6 115.8L244.2 108.4C246 117 253.9 121.8 266.8 121.8C277.3 121.8 285 117 285 110.7C285 106.1 279.6 102.7 271.4 101L250.8 96.7C231.3 92.6 219.3 82.1 219.3 67.2C219.3 46.4 237.3 32.5 263.8 32.5C287.4 32.5 305.4 43.3 310.1 60.6L284.1 67.6C282.4 59.3 274.3 53.8 262.9 53.8C253.4 53.8 247 58.3 247 64.6C247 69.5 251.3 72 258.5 73.7L282.6 79.2C301 83.3 312.2 93.7 312.2 108.6C312.2 130.4 294 143.5 264.4 143.5C238.4 143.5 220.4 133 216.6 115.8Z" fill="#ffffff"/>
<path d="M318.9 115.8L346.5 108.4C348.3 117 356.2 121.8 369.1 121.8C379.6 121.8 387.3 117 387.3 110.7C387.3 106.1 381.9 102.7 373.7 101L353.1 96.7C333.6 92.6 321.6 82.1 321.6 67.2C321.6 46.4 339.6 32.5 366.1 32.5C389.7 32.5 407.7 43.3 412.4 60.6L386.4 67.6C384.7 59.3 376.6 53.8 365.2 53.8C355.7 53.8 349.3 58.3 349.3 64.6C349.3 69.5 353.6 72 360.8 73.7L384.9 79.2C403.3 83.3 414.5 93.7 414.5 108.6C414.5 130.4 396.3 143.5 366.7 143.5C340.7 143.5 322.7 133 318.9 115.8Z" fill="#ffffff"/>
</svg>
